# File created by Blade
# Date/Time:  Fri Jan 16 17:25:32 2015
#---------------------------------------------------------
:version 1.10
:name HOM
:units
  mass 1.0
  length 1.000000
  angle deg
:documentation
     Acclaim Skeleton File
:root
   axis xyz
   order TX TY TZ RX RY RZ
   position 0.000000 0.000000 0.000000
   orientation 0 0 0
:bonedata
   begin
      id 1
      name Spine_dum
      direction 0.000000 1.000000 0.000000
      length 7.170412
      axis 0.0 0.0 0.0 xyz
   end
   begin
      id 2
      name LeftUpLeg_dum
      direction 1.000000 0.000000 0.000000
      length 4.318350
      axis 0.0 0.0 0.0 xyz
   end
   begin
      id 3
      name RightUpLeg_dum
      direction -1.000000 0.000000 0.000000
      length 4.318350
      axis 0.0 0.0 0.0 xyz
   end
   begin
      id 4
      name Spine
      direction 0.000000 1.000000 0.000000
      length 0.000000
      axis 0.0 0.0 0.0 xyz
      dof rx ry rz
   end
   begin
      id 5
      name Spine_dum1
      direction 0.000000 1.000000 0.000000
      length 14.276153
      axis 0.0 0.0 0.0 xyz
   end
   begin
      id 6
      name Spine_dum2
      direction 0.000000 1.000000 0.000000
      length 10.718243
      axis 0.0 0.0 0.0 xyz
   end
   begin
      id 7
      name Spine_dum3
      direction 0.000000 1.000000 0.000000
      length 10.718243
      axis 0.0 0.0 0.0 xyz
   end
   begin
      id 8
      name Head
      direction 0.000000 1.000000 0.000000
      length 4.527550
      axis 0.0 0.0 0.0 xyz
      dof rx ry rz
   end
   begin
      id 9
      name LeftShoulder
      direction 1.000000 0.000000 0.000000
      length 7.058872
      axis 0.0 0.0 -90.0 xyz
      dof rx ry rz
   end
   begin
      id 10
      name LeftArm
      direction 1.000000 0.000000 0.000000
      length 10.955525
      axis 0.0 0.0 -90.0 xyz
      dof rx ry rz
   end
   begin
      id 11
      name LeftForeArm
      direction 1.000000 0.000000 0.000000
      length 8.193716
      axis 0.0 0.0 -90.0 xyz
      dof ry rz rx
   end
   begin
      id 12
      name LeftHand
      direction 0.000000 0.000000 0.000000
      length 0.000000
      axis 0.0 0.0 -90.0 xyz
      dof rx ry rz
   end
   begin
      id 13
      name LeftHand_dum1
      direction 0.000000 0.000000 0.000000
      length 0.000000
      axis 0.0 0.0 -90.0 xyz
   end
   begin
      id 14
      name LeftHand_dum2
      direction 1.000000 0.000000 0.000000
      length 3.937000
      axis 0.0 0.0 -90.0 xyz
   end
   begin
      id 15
      name LeftHandThumb1
      direction 0.000000 0.000000 1.000000
      length 3.937000
      axis 0.0 0.0 -90.0 xyz
      dof rx rz ry
   end
   begin
      id 16
      name RightShoulder
      direction -1.000000 0.000000 0.000000
      length 7.058872
      axis 0.0 0.0 90.0 xyz
      dof rx ry rz
   end
   begin
      id 17
      name RightArm
      direction -1.000000 0.000000 0.000000
      length 10.955525
      axis 0.0 0.0 90.0 xyz
      dof rx ry rz
   end
   begin
      id 18
      name RightForeArm
      direction -1.000000 0.000000 0.000000
      length 8.193716
      axis 0.0 0.0 90.0 xyz
      dof ry rz rx
   end
   begin
      id 19
      name RightHand
      direction 0.000000 0.000000 0.000000
      length 0.000000
      axis 0.0 0.0 90.0 xyz
      dof rx ry rz
   end
   begin
      id 20
      name RightHand_dum1
      direction 0.000000 0.000000 0.000000
      length 0.000000
      axis 0.0 0.0 90.0 xyz
   end
   begin
      id 21
      name RightHand_dum2
      direction -1.000000 0.000000 0.000000
      length 3.937000
      axis 0.0 0.0 90.0 xyz
   end
   begin
      id 22
      name RightHandThumb1
      direction 0.000000 0.000000 1.000000
      length 3.937000
      axis 0.0 0.0 90.0 xyz
      dof rx rz ry
   end
   begin
      id 23
      name LeftUpLeg
      direction 0.000000 -1.000000 0.000000
      length 17.323638
      axis 0.0 0.0 0.0 xyz
      dof rx ry rz
   end
   begin
      id 24
      name LeftLeg
      direction 0.000000 -1.000000 0.000000
      length 16.270368
      axis 0.0 0.0 0.0 xyz
      dof rx ry rz
   end
   begin
      id 25
      name LeftFoot
      direction 0.000000 -0.258819 0.965926
      length 4.922846
      axis 15.0 0.0 0.0 xyz
      dof rx ry rz
   end
   begin
      id 26
      name LeftToeBase
      direction 0.000000 0.000000 1.000000
      length 2.952750
      axis 0.0 0.0 0.0 xyz
      dof rx ry rz
   end
   begin
      id 27
      name RightUpLeg
      direction 0.000000 -1.000000 0.000000
      length 17.323638
      axis 0.0 0.0 0.0 xyz
      dof rx ry rz
   end
   begin
      id 28
      name RightLeg
      direction 0.000000 -1.000000 0.000000
      length 16.270368
      axis 0.0 0.0 0.0 xyz
      dof rx ry rz
   end
   begin
      id 29
      name RightFoot
      direction 0.000000 -0.258819 0.965926
      length 4.922846
      axis 15.0 0.0 0.0 xyz
      dof rx ry rz
   end
   begin
      id 30
      name RightToeBase
      direction 0.000000 0.000000 1.000000
      length 2.952750
      axis 0.0 0.0 0.0 xyz
      dof rx ry rz
   end
:hierarchy
   begin
      root Spine_dum LeftUpLeg_dum RightUpLeg_dum
      Spine_dum Spine
      LeftUpLeg_dum LeftUpLeg
      RightUpLeg_dum RightUpLeg
      Spine Spine_dum1 Spine_dum2 Spine_dum3
      Spine_dum1 Head
      Spine_dum2 LeftShoulder
      Spine_dum3 RightShoulder
      LeftShoulder LeftArm
      LeftArm LeftForeArm
      LeftForeArm LeftHand
      LeftHand LeftHand_dum1 LeftHand_dum2
      LeftHand_dum1 LeftHandThumb1
      RightShoulder RightArm
      RightArm RightForeArm
      RightForeArm RightHand
      RightHand RightHand_dum1 RightHand_dum2
      RightHand_dum1 RightHandThumb1
      LeftUpLeg LeftLeg
      LeftLeg LeftFoot
      LeftFoot LeftToeBase
      RightUpLeg RightLeg
      RightLeg RightFoot
      RightFoot RightToeBase
   end

# File created by Blade
# Date/Time:  Fri Jan 16 17:25:22 2015
# Frame Rate: 120.000 fps
#------------------------------------------------------
:FULLY-SPECIFIED
:DEGREES
430
root -5.855789 35.247714 -10.771475 -3.157737 -8.472136 -6.166896
Spine 3.689793 1.386528 9.210677
Head 2.794943 9.209878 -4.270984
LeftShoulder -20.203562 15.373060 -15.771411
LeftArm 25.603290 18.148626 -68.387479
LeftForeArm 11.404829 0.000000 15.509406
LeftHand 1.039956 -0.000000 -7.942091
LeftHandThumb1 -26.253704 0.000000 33.147579
RightShoulder -3.413999 -3.247129 3.991587
RightArm 12.293987 -39.886036 62.841022
RightForeArm -17.911556 -0.000000 25.859928
RightHand 0.180575 -0.000000 4.153730
RightHandThumb1 -24.326973 -0.000000 -32.862282
LeftUpLeg 12.641844 17.028554 8.702901
LeftLeg -8.834589 -0.000000 0.000000
LeftFoot -14.674809 28.367055 -7.650769
LeftToeBase 23.093480 -0.000000 -0.000000
RightUpLeg 8.302917 -5.012308 3.070359
RightLeg -4.133451 -0.000000 0.000000
RightFoot -3.585655 -22.792770 5.301066
RightToeBase 13.730829 -0.000000 -0.000000
431
root -5.854676 35.247978 -10.773569 -3.158699 -8.461172 -6.167254
Spine 3.687093 1.381249 9.206511
Head 2.788454 9.200941 -4.267323
LeftShoulder -20.200783 15.363877 -15.779952
LeftArm 25.570388 18.231162 -68.395126
LeftForeArm 11.337216 -0.000000 15.519089
LeftHand 1.040542 -0.000000 -7.882689
LeftHandThumb1 -26.253704 0.000000 33.147579
RightShoulder -3.418647 -3.233024 3.996377
RightArm 12.282763 -39.900080 62.838462
RightForeArm -17.897116 -0.000000 25.860254
RightHand 0.182017 -0.000000 4.154919
RightHandThumb1 -24.326973 -0.000000 -32.862282
LeftUpLeg 12.634719 17.011174 8.699054
LeftLeg -8.829795 -0.000000 0.000000
LeftFoot -14.657498 28.367388 -7.629824
LeftToeBase 23.043701 -0.000000 -0.000000
RightUpLeg 8.298111 -5.020256 3.067326
RightLeg -4.126984 -0.000000 0.000000
RightFoot -3.585974 -22.781096 5.324009
RightToeBase 13.731435 -0.000000 -0.000000
432
root -5.853328 35.248033 -10.775293 -3.162034 -8.448546 -6.163314
Spine 3.686390 1.370377 9.196715
Head 2.779599 9.196270 -4.263793
LeftShoulder -20.206796 15.362672 -15.787057
LeftArm 25.544622 18.261912 -68.421346
LeftForeArm 11.383059 0.000000 15.525376
LeftHand 1.098383 -0.000000 -7.798026
LeftHandThumb1 -26.253704 0.000000 33.147579
RightShoulder -3.421187 -3.256612 4.008991
RightArm 12.332435 -39.958752 62.770566
RightForeArm -17.816707 -0.000000 25.875771
RightHand 0.164231 -0.000000 4.109226
RightHandThumb1 -24.326973 -0.000000 -32.862282
LeftUpLeg 12.627863 16.994646 8.691448
LeftLeg -8.823930 -0.000000 0.000000
LeftFoot -14.672499 28.372575 -7.635778
LeftToeBase 23.089206 -0.000000 -0.000000
RightUpLeg 8.293063 -5.048090 3.060847
RightLeg -4.117136 -0.000000 0.000000
RightFoot -3.584332 -22.773849 5.296283
RightToeBase 13.752191 -0.000000 -0.000000
433
root -5.852437 35.248113 -10.777052 -3.166574 -8.446079 -6.161432
Spine 3.689485 1.375076 9.193684
Head 2.779304 9.178668 -4.275082
LeftShoulder -20.214348 15.370029 -15.799738
LeftArm 25.531636 18.260073 -68.439643
LeftForeArm 11.608252 0.000000 15.548711
LeftHand 1.140321 0.000000 -7.244294
LeftHandThumb1 -26.253704 0.000000 33.147579
RightShoulder -3.426432 -3.260608 4.009166
RightArm 12.345702 -39.974317 62.758726
RightForeArm -17.803270 -0.000000 25.875283
RightHand 0.153626 -0.000000 4.073566
RightHandThumb1 -24.326973 -0.000000 -32.862282
LeftUpLeg 12.627493 17.002161 8.690585
LeftLeg -8.822994 -0.000000 0.000000
LeftFoot -14.657050 28.366004 -7.626645
LeftToeBase 23.044404 -0.000000 -0.000000
RightUpLeg 8.288661 -5.049548 3.058529
RightLeg -4.103169 -0.000000 0.000000
RightFoot -3.595822 -22.780055 5.304725
RightToeBase 13.756037 -0.000000 -0.000000
